<?xml version="1.0" encoding="UTF-8" standalone="no"?>
<!DOCTYPE svg PUBLIC "-//W3C//DTD SVG 1.1//EN"
 "http://www.w3.org/Graphics/SVG/1.1/DTD/svg11.dtd">
<!-- Generated by graphviz version 2.40.1 (20161225.0304)
 -->
<!-- Title: models_diagram Pages: 1 -->
<svg width="653pt" height="246pt"
 viewBox="0.00 0.00 653.31 246.00" xmlns="http://www.w3.org/2000/svg" xmlns:xlink="http://www.w3.org/1999/xlink">
<g id="graph0" class="graph" transform="scale(1 1) rotate(0) translate(4 242)">
<title>models_diagram</title>
<polygon fill="transparent" stroke="transparent" points="-4,4 -4,-242 649.312,-242 649.312,4 -4,4"/>
<!-- _diagram_info -->
<g id="node1" class="node">
<title>_diagram_info</title>
<text text-anchor="start" x="8" y="-209.6" font-family="Times,serif" font-size="13.00" fill="#000000">Models diagram</text>
<text text-anchor="start" x="8" y="-196.6" font-family="Times,serif" font-size="13.00" fill="#000000">Date: Nov 03 2017 &#45; 00:06</text>
<text text-anchor="start" x="8" y="-183.6" font-family="Times,serif" font-size="13.00" fill="#000000">Migration version: 20171103030207</text>
<text text-anchor="start" x="8" y="-170.6" font-family="Times,serif" font-size="13.00" fill="#000000">Generated by RailRoady 1.5.3</text>
<text text-anchor="start" x="8" y="-157.6" font-family="Times,serif" font-size="13.00" fill="#000000">http://railroady.prestonlee.com</text>
</g>
<!-- ApplicationRecord -->
<g id="node2" class="node">
<title>ApplicationRecord</title>
<ellipse fill="none" stroke="#000000" cx="302.4497" cy="-187.5" rx="77.2916" ry="18"/>
<text text-anchor="middle" x="302.4497" y="-183.3" font-family="Times,serif" font-size="14.00" fill="#000000">ApplicationRecord</text>
</g>
<!-- Comment -->
<g id="node3" class="node">
<title>Comment</title>
<path fill="none" stroke="#000000" d="M409.5874,-.5C409.5874,-.5 633.312,-.5 633.312,-.5 639.312,-.5 645.312,-6.5 645.312,-12.5 645.312,-12.5 645.312,-88.5 645.312,-88.5 645.312,-94.5 639.312,-100.5 633.312,-100.5 633.312,-100.5 409.5874,-100.5 409.5874,-100.5 403.5874,-100.5 397.5874,-94.5 397.5874,-88.5 397.5874,-88.5 397.5874,-12.5 397.5874,-12.5 397.5874,-6.5 403.5874,-.5 409.5874,-.5"/>
<text text-anchor="middle" x="521.4497" y="-85.3" font-family="Times,serif" font-size="14.00" fill="#000000">Comment</text>
<polyline fill="none" stroke="#000000" points="397.5874,-78.5 645.312,-78.5 "/>
<text text-anchor="start" x="405.5874" y="-63.3" font-family="Times,serif" font-size="14.00" fill="#000000">id :integer</text>
<text text-anchor="start" x="405.5874" y="-49.3" font-family="Times,serif" font-size="14.00" fill="#000000">content :text</text>
<text text-anchor="start" x="405.5874" y="-35.3" font-family="Times,serif" font-size="14.00" fill="#000000">post_id :integer</text>
<text text-anchor="start" x="405.5874" y="-21.3" font-family="Times,serif" font-size="14.00" fill="#000000">created_at :timestamp without time zone</text>
<text text-anchor="start" x="405.5874" y="-7.3" font-family="Times,serif" font-size="14.00" fill="#000000">updated_at :timestamp without time zone</text>
</g>
<!-- Post -->
<g id="node4" class="node">
<title>Post</title>
<path fill="none" stroke="#000000" d="M409.5874,-137.5C409.5874,-137.5 633.312,-137.5 633.312,-137.5 639.312,-137.5 645.312,-143.5 645.312,-149.5 645.312,-149.5 645.312,-225.5 645.312,-225.5 645.312,-231.5 639.312,-237.5 633.312,-237.5 633.312,-237.5 409.5874,-237.5 409.5874,-237.5 403.5874,-237.5 397.5874,-231.5 397.5874,-225.5 397.5874,-225.5 397.5874,-149.5 397.5874,-149.5 397.5874,-143.5 403.5874,-137.5 409.5874,-137.5"/>
<text text-anchor="middle" x="521.4497" y="-222.3" font-family="Times,serif" font-size="14.00" fill="#000000">Post</text>
<polyline fill="none" stroke="#000000" points="397.5874,-215.5 645.312,-215.5 "/>
<text text-anchor="start" x="405.5874" y="-200.3" font-family="Times,serif" font-size="14.00" fill="#000000">id :integer</text>
<text text-anchor="start" x="405.5874" y="-186.3" font-family="Times,serif" font-size="14.00" fill="#000000">title :character varying</text>
<text text-anchor="start" x="405.5874" y="-172.3" font-family="Times,serif" font-size="14.00" fill="#000000">content :text</text>
<text text-anchor="start" x="405.5874" y="-158.3" font-family="Times,serif" font-size="14.00" fill="#000000">created_at :timestamp without time zone</text>
<text text-anchor="start" x="405.5874" y="-144.3" font-family="Times,serif" font-size="14.00" fill="#000000">updated_at :timestamp without time zone</text>
</g>
<!-- Post&#45;&gt;Comment -->
<g id="edge1" class="edge">
<title>Post&#45;&gt;Comment</title>
<path fill="none" stroke="#560767" d="M521.4497,-129.063C521.4497,-123.0221 521.4497,-116.8745 521.4497,-110.8137"/>
<ellipse fill="none" stroke="#560767" cx="521.4498" cy="-133.2642" rx="4" ry="4"/>
<polygon fill="#560767" stroke="#560767" points="521.4498,-110.7297 525.9497,-100.7297 521.4498,-105.7297 521.4497,-100.7297 521.4497,-100.7297 521.4497,-100.7297 521.4498,-105.7297 516.9497,-100.7298 521.4498,-110.7297 521.4498,-110.7297"/>
</g>
</g>
</svg>
